<svg aria-hidden="true" style="position: absolute; width: 0; height: 0; overflow: hidden;" version="1.1" xmlns="http://www.w3.org/2000/svg" xmlns:xlink="http://www.w3.org/1999/xlink">
<defs>
<symbol id="icon-arrow-back" viewBox="0 0 32 32">
<path d="M28 14.667h-19.448l7.057-7.057-1.885-1.885-10.276 10.276 10.276 10.276 1.885-1.885-7.057-7.057h19.448v-2.667z"></path>
</symbol>
<symbol id="icon-chevron-down" viewBox="0 0 32 32">
<path d="M21.724 11.057l-5.724 5.724-5.724-5.724-1.885 1.885 7.609 7.609 7.609-7.609-1.885-1.885z"></path>
</symbol>
<symbol id="icon-chevron-left" viewBox="0 0 32 32">
<path d="M17.724 8.391l-7.609 7.609 7.609 7.609 1.885-1.885-5.724-5.724 5.724-5.724-1.885-1.885z"></path>
</symbol>
<symbol id="icon-chevron-right" viewBox="0 0 32 32">
<path d="M12.943 22.599l7.609-7.609-7.609-7.609-1.885 1.885 5.724 5.724-5.724 5.724 1.885 1.885z"></path>
</symbol>
<symbol id="icon-chevron-up" viewBox="0 0 32 32">
<path d="M8.391 19.057l1.885 1.885 5.724-5.724 5.724 5.724 1.885-1.885-7.609-7.609-7.609 7.609z"></path>
</symbol>
<symbol id="icon-close" viewBox="0 0 32 32">
<path d="M21.589 8.459l-5.657 5.656-5.656-5.656-1.885 1.885 5.656 5.656-5.656 5.656 1.885 1.885 5.656-5.656 5.657 5.656 1.885-1.885-5.656-5.656 5.656-5.656-1.885-1.885z"></path>
</symbol>
<symbol id="icon-down-arrow-alt" viewBox="0 0 32 32">
<path d="M24.943 16.943l-1.885-1.885-5.724 5.724v-12.781h-2.667v12.781l-5.724-5.724-1.885 1.885 8.943 8.943 8.943-8.943z"></path>
</symbol>
<symbol id="icon-Facebook" viewBox="0 0 32 32">
<path d="M29.333 16.405c0-7.409-5.969-13.415-13.333-13.415s-13.333 6.006-13.333 13.415c0 6.696 4.876 12.245 11.25 13.252v-9.374h-3.385v-3.878h3.385v-2.955c0-3.362 1.991-5.219 5.036-5.219 1.459 0 2.985 0.262 2.985 0.262v3.301h-1.681c-1.656 0-2.173 1.034-2.173 2.095v2.516h3.698l-0.591 3.878h-3.107v9.374c6.374-1.006 11.25-6.556 11.25-13.252z"></path>
</symbol>
<symbol id="icon-Instagram" viewBox="0 0 32 32">
<path d="M15.998 6.161c3.206 0 3.585 0.014 4.846 0.071 1.172 0.052 1.804 0.248 2.226 0.412 0.558 0.216 0.961 0.478 1.378 0.895 0.422 0.422 0.679 0.82 0.9 1.378 0.164 0.422 0.361 1.059 0.412 2.226 0.056 1.266 0.071 1.645 0.071 4.847s-0.014 3.585-0.071 4.847c-0.052 1.172-0.248 1.804-0.412 2.227-0.216 0.558-0.478 0.961-0.895 1.377-0.422 0.422-0.82 0.679-1.378 0.9-0.422 0.164-1.060 0.361-2.226 0.412-1.266 0.056-1.645 0.071-4.847 0.071s-3.585-0.014-4.847-0.071c-1.172-0.052-1.804-0.248-2.226-0.412-0.558-0.216-0.961-0.478-1.378-0.895-0.422-0.422-0.679-0.82-0.9-1.378-0.164-0.422-0.361-1.060-0.412-2.226-0.056-1.266-0.071-1.645-0.071-4.847s0.014-3.585 0.071-4.847c0.052-1.172 0.248-1.804 0.412-2.226 0.216-0.558 0.478-0.961 0.895-1.378 0.422-0.422 0.82-0.679 1.378-0.9 0.422-0.164 1.059-0.361 2.226-0.412 1.261-0.056 1.641-0.071 4.847-0.071h0.001zM15.998 4.001c-3.258 0-3.665 0.014-4.945 0.071-1.275 0.056-2.151 0.262-2.91 0.558-0.792 0.309-1.462 0.717-2.127 1.387-0.67 0.666-1.078 1.336-1.387 2.123-0.295 0.764-0.502 1.636-0.558 2.91-0.056 1.285-0.071 1.692-0.071 4.949s0.014 3.665 0.071 4.945c0.056 1.275 0.262 2.151 0.558 2.91 0.31 0.792 0.717 1.462 1.387 2.127 0.665 0.665 1.336 1.078 2.123 1.383 0.764 0.295 1.636 0.502 2.91 0.558 1.279 0.056 1.687 0.071 4.945 0.071s3.666-0.014 4.945-0.071c1.275-0.056 2.151-0.262 2.91-0.558 0.787-0.305 1.458-0.717 2.123-1.383s1.078-1.336 1.383-2.123c0.295-0.764 0.502-1.635 0.558-2.91 0.056-1.279 0.071-1.687 0.071-4.945s-0.014-3.665-0.071-4.945c-0.056-1.275-0.262-2.151-0.558-2.91-0.295-0.797-0.703-1.467-1.373-2.133-0.665-0.665-1.336-1.078-2.123-1.383-0.764-0.295-1.635-0.502-2.91-0.558-1.284-0.061-1.692-0.075-4.949-0.075l-0.001 0.001z"></path>
<path d="M15.998 9.836c-3.402 0-6.163 2.76-6.163 6.163s2.76 6.163 6.163 6.163c3.403 0 6.163-2.76 6.163-6.163s-2.76-6.163-6.163-6.163zM15.998 19.997c-2.208 0-3.998-1.79-3.998-3.998s1.79-3.998 3.998-3.998c2.208 0 3.998 1.79 3.998 3.998s-1.79 3.998-3.998 3.998z"></path>
<path d="M23.843 9.592c0 0.795-0.644 1.439-1.439 1.439s-1.439-0.644-1.439-1.439 0.644-1.439 1.439-1.439c0.795 0 1.439 0.644 1.439 1.439z"></path>
</symbol>
<symbol id="icon-left-arrow-alt" viewBox="0 0 32 32">
<path d="M16.943 23.057l-5.724-5.724h12.781v-2.667h-12.781l5.724-5.724-1.885-1.885-8.943 8.943 8.943 8.943 1.885-1.885z"></path>
</symbol>
<symbol id="icon-menu" viewBox="0 0 32 32">
<path d="M5.333 8h21.333v2.667h-21.333v-2.667zM5.333 14.667h21.333v2.667h-21.333v-2.667zM5.333 21.333h21.333v2.667h-21.333v-2.667z"></path>
</symbol>
<symbol id="icon-minus" viewBox="0 0 32 32">
<path d="M6.667 14.667h18.667v2.667h-18.667v-2.667z"></path>
</symbol>
<symbol id="icon-plus" viewBox="0 0 32 32">
<path d="M25.333 14.667h-8v-8h-2.667v8h-8v2.667h8v8h2.667v-8h8v-2.667z"></path>
</symbol>
<symbol id="icon-right-arrow-alt" viewBox="0 0 32 32">
<path d="M15.057 23.057l1.885 1.885 8.943-8.943-8.943-8.943-1.885 1.885 5.724 5.724h-12.781v2.667h12.781l-5.724 5.724z"></path>
</symbol>
<symbol id="icon-star" viewBox="0 0 32 32">
<path d="M8.688 19.097l-1.987 8.603c-0.062 0.261-0.043 0.533 0.053 0.783s0.265 0.465 0.485 0.617c0.22 0.152 0.481 0.235 0.749 0.236s0.53-0.078 0.752-0.227l7.26-4.84 7.26 4.84c0.227 0.151 0.495 0.228 0.768 0.222s0.537-0.095 0.757-0.256c0.22-0.161 0.386-0.385 0.475-0.642s0.097-0.536 0.023-0.799l-2.439-8.533 6.048-5.443c0.194-0.174 0.332-0.402 0.398-0.654s0.056-0.518-0.027-0.765-0.238-0.464-0.444-0.624c-0.206-0.16-0.454-0.256-0.714-0.277l-7.601-0.605-3.289-7.281c-0.105-0.234-0.275-0.434-0.491-0.573s-0.467-0.214-0.724-0.214c-0.257 0-0.508 0.074-0.724 0.214s-0.386 0.339-0.491 0.573l-3.289 7.281-7.601 0.604c-0.255 0.020-0.5 0.114-0.703 0.269s-0.358 0.366-0.445 0.607c-0.087 0.241-0.103 0.502-0.046 0.752s0.185 0.478 0.369 0.656l5.619 5.476zM12.492 13.329c0.238-0.019 0.467-0.101 0.662-0.239s0.35-0.325 0.448-0.543l2.399-5.308 2.399 5.308c0.098 0.218 0.252 0.405 0.448 0.543s0.424 0.22 0.662 0.239l5.296 0.42-4.361 3.925c-0.379 0.341-0.529 0.867-0.391 1.357l1.671 5.847-4.981-3.321c-0.219-0.147-0.476-0.225-0.739-0.225s-0.521 0.078-0.739 0.225l-5.205 3.471 1.4-6.061c0.051-0.223 0.044-0.455-0.020-0.675s-0.184-0.419-0.348-0.579l-4.051-3.949 5.453-0.435z"></path>
</symbol>
<symbol id="icon-up-arrow-alt" viewBox="0 0 32 32">
<path d="M14.667 11.219v12.781h2.667v-12.781l5.724 5.724 1.885-1.885-8.943-8.943-8.943 8.943 1.885 1.885 5.724-5.724z"></path>
</symbol>
<symbol id="icon-logo" viewBox="0 0 136 32">
<path d="M13.696 1.364c8.308-0.775 15.669 5.336 16.436 13.645s-5.352 15.664-13.661 16.422c-8.297 0.757-15.64-5.351-16.405-13.648s5.335-15.645 13.631-16.419zM16.708 29.832c7.417-0.89 12.706-7.627 11.811-15.043s-7.635-12.701-15.050-11.801c-7.409 0.899-12.688 7.631-11.794 15.041 0.894 7.41 7.623 12.693 15.034 11.804z"></path>
<path d="M21.008 8.54l1.738-0.012c0.034 5.016 0.036 10.031 0.008 15.047l-1.797 0.023-0.003-9.424-0.008-2.581c-1.004 1.905-2.143 3.736-3.229 5.595-0.688 1.178-1.327 2.53-2.179 3.589-0.203 0.074-0.424 0.080-0.635 0.032-0.069-0.016-0.214-0.070-0.267-0.112-0.459-0.366-4.778-7.954-5.468-9.105 0.177 1.364 0.066 2.853 0.065 4.231l-0.005 7.739-1.837 0.006c0.057-5.008-0.033-10.018 0.015-15.027l2.001 0.010c0.89 1.591 1.844 3.148 2.767 4.72 0.98 1.671 1.935 3.362 2.977 4.995 1.060-1.935 2.245-3.811 3.384-5.702 0.807-1.339 1.57-2.749 2.474-4.024z"></path>
<path d="M113.015 12.114c0.355-0.024 0.719-0.033 1.074-0.027 1.325 0.024 2.678 0.732 3.585 1.671 1.13 1.17 1.655 2.802 1.617 4.412-0.038 1.638-0.652 3.196-1.858 4.32-1.069 0.996-2.438 1.528-3.903 1.474-1.677-0.063-2.789-0.77-3.913-1.97-0.044 0.687-0.031 1.382-0.037 2.071 0.007 1.368 0.006 2.736-0.006 4.104-0.638 0.063-1.281 0.057-1.918-0.018 0.104-2.118 0.012-4.286 0.013-6.41 0-3.159 0.050-6.325-0.021-9.483l1.897-0.007c-0.037 0.705-0.028 1.416-0.039 2.122 1.028-1.283 1.885-1.901 3.508-2.259zM113.837 22.269c1.18-0.221 2.093-0.702 2.786-1.721 0.677-1.013 0.92-2.256 0.674-3.449-0.212-1.064-0.841-2.069-1.767-2.65-0.729-0.457-1.518-0.583-2.36-0.559-1.169 0.221-2.117 0.637-2.818 1.657-0.66 0.96-0.945 2.327-0.722 3.469 0.212 1.096 0.862 2.059 1.801 2.663 0.748 0.471 1.539 0.606 2.407 0.591z"></path>
<path d="M77.61 7.355c0.309 0.318 0.405 1.156 0.589 1.605-1.991 0.836-4.877 0.664-6.479 2.193-0.957 0.915-1.186 2.18-1.206 3.441 0.857-1.058 1.796-1.915 3.201-2.15 1.419-0.237 2.924 0.037 4.088 0.904 1.251 0.931 1.947 2.281 2.156 3.809 0.24 1.757-0.198 3.414-1.276 4.817-0.781 0.866-1.689 1.507-2.833 1.787-1.448 0.355-3.102 0.171-4.378-0.621-1.456-0.904-2.294-2.396-2.657-4.038-0.543-2.453-0.436-6.119 0.978-8.296 1.247-1.921 3.13-2.301 5.222-2.799 0.869-0.207 1.725-0.461 2.597-0.653zM74.3 22.28c1.233-0.182 2.15-0.478 2.916-1.537 0.752-1.038 0.995-2.35 0.761-3.598-0.188-1.007-0.718-1.929-1.583-2.499-0.53-0.35-1.144-0.551-1.779-0.581-1.2 0.134-2.186 0.383-2.985 1.372-0.749 0.929-1.070 2.184-0.904 3.361 0.151 1.074 0.738 2.107 1.62 2.748 0.597 0.433 1.237 0.622 1.954 0.734z"></path>
<path d="M50.632 8.119c0.701-0.070 1.43-0.037 2.135-0.042-0.095 5.161 0.018 10.337-0.011 15.5l-1.859-0.019 0.003-9.13c-0.005-1.046-0.027-2.094 0.037-3.139-1.713 3.163-3.258 6.465-5.134 9.533l-1.208-0.007c-1.848-3.029-3.386-6.294-5.094-9.407 0.067 1.428 0.022 2.877 0.023 4.307l0.004 7.861c-0.62-0.016-1.237 0.024-1.857-0.005l0.001-9.404c0.001-2.021-0.038-4.056 0.073-6.074l2.068 0.001c0.588 1.008 1.087 2.088 1.621 3.126 1.239 2.408 2.465 4.843 3.802 7.198 1.964-3.331 3.519-6.918 5.397-10.301z"></path>
<path d="M60.191 12.117c0.284-0.015 0.567-0.026 0.851-0.032 1.488-0.024 2.971 0.382 4.043 1.46 1.435 1.442 1.578 3.26 1.578 5.181-3.097 0.040-6.199-0.003-9.297 0.011 0.096 0.511 0.192 1 0.435 1.467 0.484 0.933 1.324 1.632 2.331 1.937 1.204 0.365 2.416 0.151 3.499-0.446 0.363-0.247 0.696-0.536 1.034-0.816 0.486 0.278 0.978 0.509 1.492 0.732-0.764 1.031-1.75 1.783-2.997 2.124-1.597 0.437-3.543 0.266-4.981-0.581-1.261-0.744-2.166-1.968-2.506-3.391-0.425-1.712-0.188-3.584 0.741-5.089 0.895-1.451 2.151-2.168 3.776-2.556zM57.387 17.279c1.534-0.012 3.068-0.017 4.603-0.013l2.868 0.002c-0.28-1.177-0.56-2.268-1.655-2.957-0.801-0.504-1.773-0.581-2.695-0.504-0.996 0.23-1.835 0.683-2.404 1.561-0.385 0.594-0.555 1.233-0.716 1.911z"></path>
<path d="M98.721 12.114c0.279-0.014 0.556-0.023 0.835-0.028 1.484-0.016 2.967 0.424 4.026 1.507 1.394 1.425 1.522 3.244 1.515 5.125-3.084 0.047-6.176 0.010-9.262 0.017 0.041 0.563 0.14 1.047 0.403 1.553 0.486 0.937 1.293 1.558 2.299 1.852 1.347 0.396 2.572 0.103 3.763-0.557 0.291-0.2 0.549-0.445 0.813-0.679 0.489 0.263 0.985 0.476 1.5 0.681-0.807 1.060-1.81 1.829-3.113 2.159-1.62 0.411-3.481 0.253-4.927-0.619-1.284-0.775-2.164-2.052-2.501-3.507-0.385-1.662-0.116-3.573 0.812-5.013s2.199-2.137 3.836-2.491zM95.819 17.275c1.469-0.004 2.939-0.024 4.408-0.009l3.113-0.002c-0.323-1.21-0.661-2.389-1.832-3.055-0.725-0.413-1.608-0.483-2.427-0.4-0.971 0.161-1.793 0.526-2.396 1.338-0.478 0.643-0.681 1.362-0.866 2.127z"></path>
<path d="M130.754 12.277c1.879-0.088 3.785-0.024 5.667-0.018-0.096 3.762-0.011 7.549-0.012 11.314l-1.935-0.021-0.002-3.865c-0.924-0.006-2.142-0.186-3.024 0.023-0.275 0.066-0.325 0.204-0.479 0.418-0.653 1.159-1.38 2.277-2.036 3.436-0.731 0.016-1.464 0.019-2.195 0.006 0.716-1.344 1.688-3.055 2.636-4.219-0.113-0.055-0.225-0.113-0.334-0.173-0.827-0.456-1.459-1.19-1.701-2.11-0.252-0.96-0.115-2.055 0.399-2.907 0.692-1.149 1.776-1.591 3.016-1.884zM132.738 18.065c0.572-0.005 1.155 0.013 1.725-0.028-0.007-1.338-0.004-2.676 0.011-4.014-1.135-0.004-2.286-0.035-3.419 0.028-0.715 0.224-1.274 0.466-1.66 1.155-0.256 0.458-0.325 1.063-0.152 1.561 0.167 0.482 0.554 0.82 1.009 1.026 0.769 0.347 1.663 0.279 2.487 0.272z"></path>
<path d="M83.89 12.381c2.451-0.088 4.923-0.031 7.377-0.036l-0.011 11.226c-0.611-0.009-1.225-0.035-1.831 0.049l-0.009-9.509-1.040 0.042c-0.928-0.046-1.877 0.015-2.807 0.037-0.026 2.263-0.035 6.954-1.62 8.628-0.791 0.835-1.684 0.92-2.763 0.929-0.008-0.59-0.040-1.173-0.082-1.762 0.282-0.026 0.581-0.045 0.855-0.115 1.706-0.43 1.736-6.068 1.779-7.489 0.017-0.554-0.106-1.55 0.153-2.001z"></path>
<path d="M123.648 12.298l0.251-0.015c0.030 0.041 0.073 0.075 0.091 0.122 0.084 0.221-0.002 10.027-0.002 11.161l-1.644 0.011-0.121-0.024c-0.263-0.476 0.001-9.82-0.082-11.233 0.502 0.006 1.004-0.011 1.506-0.022z"></path>
<path d="M122.107 8.064l1.891-0.006c-0.020 0.671-0.005 1.343 0.005 2.014l-1.947 0.015c0.028-0.674 0.045-1.348 0.051-2.023z"></path>
</symbol>
<symbol id="icon-Youtube" viewBox="0 0 32 32">
<path d="M28.791 9.604c-0.152-0.563-0.449-1.077-0.861-1.49s-0.925-0.711-1.489-0.864c-2.088-0.573-10.441-0.583-10.441-0.583s-8.352-0.009-10.441 0.539c-0.563 0.16-1.075 0.462-1.487 0.878s-0.711 0.929-0.867 1.493c-0.551 2.088-0.556 6.419-0.556 6.419s-0.005 4.352 0.541 6.419c0.307 1.143 1.207 2.045 2.351 2.353 2.109 0.573 10.44 0.583 10.44 0.583s8.353 0.009 10.441-0.537c0.563-0.153 1.077-0.45 1.49-0.862s0.712-0.925 0.866-1.488c0.552-2.087 0.556-6.416 0.556-6.416s0.027-4.353-0.543-6.441zM13.328 20.007l0.007-8 6.943 4.007-6.949 3.993z"></path>
</symbol>
</defs>
</svg>
